<svg width="25" height="20" viewBox="0 0 25 20" fill="none" xmlns="http://www.w3.org/2000/svg">
<path d="M15.9566 0.969971C15.7249 1.38494 15.5185 1.81349 15.3383 2.2533C13.5682 1.97336 11.7651 1.97336 9.99498 2.2533C9.81484 1.81349 9.60835 1.38494 9.37665 0.969971C7.70924 1.25487 6.08829 1.7651 4.55832 2.48664C1.82242 6.43497 0.581661 11.2284 1.05832 16.0083C2.84126 17.3486 4.84235 18.3709 6.97332 19.03C7.45855 18.389 7.8916 17.7102 8.26832 17C7.57307 16.7436 6.90483 16.4193 6.27332 16.0316C6.44652 15.9164 6.61036 15.7877 6.76332 15.6466C8.60485 16.5337 10.6226 16.9943 12.6666 16.9943C14.7107 16.9943 16.7284 16.5337 18.57 15.6466C18.7333 15.7866 18.8966 15.915 19.06 16.0316C18.425 16.4162 17.7575 16.7442 17.065 17.0116C17.4261 17.7379 17.8476 18.4326 18.325 19.0883C20.4533 18.4315 22.4509 17.409 24.2283 16.0666C24.7164 11.2859 23.4747 6.48852 20.7283 2.54497C19.2155 1.8085 17.6106 1.27875 15.9566 0.969971ZM8.79332 13.2783C8.2095 13.2364 7.66462 12.9699 7.27306 12.5349C6.8815 12.0998 6.67371 11.53 6.69332 10.945C6.67075 10.3592 6.87752 9.78773 7.26966 9.35201C7.66181 8.9163 8.20842 8.65069 8.79332 8.61164C9.37821 8.65069 9.92482 8.9163 10.317 9.35201C10.7091 9.78773 10.9159 10.3592 10.8933 10.945C10.9159 11.5307 10.7091 12.1022 10.317 12.5379C9.92482 12.9736 9.37821 13.2393 8.79332 13.2783ZM16.54 13.2783C15.9562 13.2364 15.4113 12.9699 15.0197 12.5349C14.6282 12.0998 14.4204 11.53 14.44 10.945C14.4174 10.3592 14.6242 9.78773 15.0163 9.35201C15.4085 8.9163 15.9551 8.65069 16.54 8.61164C17.126 8.64777 17.6743 8.91252 18.0671 9.34891C18.4598 9.78529 18.6656 10.3584 18.64 10.945C18.6656 11.5315 18.4598 12.1046 18.0671 12.541C17.6743 12.9774 17.126 13.2422 16.54 13.2783Z" fill="#939393"/>
</svg>
