<svg width="24" height="20" viewBox="0 0 24 20" fill="none" xmlns="http://www.w3.org/2000/svg">
<path d="M20.9052 5.32984C20.9204 5.53401 20.9204 5.73701 20.9204 5.94001C20.9204 12.1525 16.1919 19.3112 7.55037 19.3112C4.88804 19.3112 2.41471 18.54 0.333374 17.2007C0.711374 17.2438 1.07537 17.259 1.46854 17.259C3.5837 17.2641 5.63896 16.5568 7.30304 15.2512C6.32237 15.2334 5.37171 14.9099 4.58382 14.3257C3.79592 13.7415 3.21012 12.9259 2.90821 11.9927C3.19871 12.0358 3.49037 12.065 3.79604 12.065C4.21721 12.065 4.64071 12.0067 5.03387 11.9052C3.96959 11.6903 3.01259 11.1134 2.3256 10.2726C1.6386 9.43187 1.26402 8.3791 1.26554 7.29334V7.23501C1.89204 7.58384 2.61887 7.80201 3.38887 7.83118C2.74381 7.40253 2.21488 6.82087 1.84927 6.1381C1.48366 5.45533 1.29274 4.69267 1.29354 3.91818C1.29354 3.04551 1.52571 2.24518 1.93287 1.54751C3.1137 3.00003 4.58646 4.18833 6.25577 5.03544C7.92507 5.88256 9.7537 6.36959 11.6232 6.46501C11.5509 6.11501 11.5065 5.75218 11.5065 5.38818C11.5062 4.77097 11.6276 4.15974 11.8636 3.58946C12.0997 3.01917 12.4458 2.501 12.8823 2.06456C13.3187 1.62813 13.8369 1.28199 14.4072 1.04593C14.9774 0.809879 15.5887 0.688537 16.2059 0.688843C17.5592 0.688843 18.7807 1.25584 19.6394 2.17284C20.6914 1.9694 21.7003 1.58534 22.6214 1.03768C22.2707 2.12363 21.5361 3.04446 20.5552 3.62768C21.4883 3.52125 22.4002 3.27587 23.2607 2.89968C22.618 3.83662 21.8216 4.65825 20.9052 5.32984Z" fill="#939393"/>
</svg>
